PathFileType	4	(X/Y/Z)	C:/Users/beibeiliu/ov580/test_trc/User3\sequence.45_training_dense_left.trc
DataRate	CameraRate	NumFrames	NumMarkers	Units	OrigDataRate	OrigDataStartFrame	OrigNumFrames
120	120	11	19	mm	120	27	107
Frame#	Time	ThumbCMC			ThumbMCP			ThumbIP			ThumbTip			IndexMCP			IndexPIP			IndexTip			MiddleMCP			MiddlePIP			MiddleTip			RingMCP			RingPIP			RingTip			PinkyMCP			PinkyPIP			PinkyTip			BackHand1			BackHand2			BackHand3	
		X0	Y0	Z0	X1	Y1	Z1	X2	Y2	Z2	X3	Y3	Z3	X4	Y4	Z4	X5	Y5	Z5	X6	Y6	Z6	X7	Y7	Z7	X8	Y8	Z8	X9	Y9	Z9	X10	Y10	Z10	X11	Y11	Z11	X12	Y12	Z12	X13	Y13	Z13	X14	Y14	Z14	X15	Y15	Z15	X16	Y16	Z16	X17	Y17	Z17	X18	Y18	Z18	
26	0.216667	-158.076	26.9362	15.6765	-151.704	36.3911	-13.3874	-147.915	37.9787	-41.1841	-141.382	37.8773	-62.8238	-185.805	-6.19339	-45.8834	-190.548	-14.583	-72.3218	-189.738	-16.8852	-96.8399	-182.55	-38.0828	-47.2435	-182.873	-40.0267	-74.831	-175.563	-47.0423	-104.831	-163.697	-47.8671	-41.5599	-144.828	-52.0239	-65.7349	-115.175	-44.1809	-74.9365	-143.053	-61.0871	-22.2002	-121.022	-52.1231	-38.623	-100.558	-35.5088	-33.7832	-174.186	-41.1902	13.1528	-171.994	-33.0964	46.5543	-180.62	-4.02286	19.7134	
27	0.225	-140.353	18.8865	23.6423	-127.546	27.735	-4.37873	-124.189	30.3108	-37.2955	-117.426	28.2677	-59.02	-187.17	1.8526	-32.5614	-197.821	4.14488	-62.9221	-202.094	-4.82231	-85.3038	-201.058	-19.8819	-34.4259	-208.976	-31.17	-60.4518	-202.512	-42.1646	-94.9324	-189.058	-46.1406	-25.1355	-174.873	-60.9353	-51.3963	-149.12	-68.8339	-59.0704	-176.684	-65.3195	-8.75785	-158.793	-70.1172	-25.867	-129.351	-64.4006	-25.9381	-186.612	-23.6319	25.9578	-178.404	-21.5661	56.6195	-175.714	5.169	27.6438	
28	0.233333	-157.666	8.13591	25.9224	-151.691	8.03394	0.200869	-151.468	10.8916	-30.9651	-151.121	5.67136	-53.4757	-221.127	-5.97908	-12.9073	-238.243	-6.47027	-35.8741	-245.3	-16.5778	-66.5581	-231.704	-27.3195	-7.09224	-249.954	-38.751	-35.6016	-245.749	-56.0632	-61.9445	-221.015	-55.8657	-8.31845	-213.478	-70.4444	-34.6762	-187.016	-78.433	-44.6052	-206.985	-71.561	6.17476	-189.057	-83.0546	-13.8304	-161.431	-79.1793	-18.4337	-210.218	-36.6914	43.1598	-190.357	-28.837	71.8868	-192.22	-3.76333	44.6806	
29	0.241667	-187.276	-7.04247	36.5427	-193.153	-7.94647	5.78102	-197.956	-0.031889	-23.3052	-203.952	-10.0115	-47.2159	-256.491	-30.2507	15.2393	-281.814	-30.8751	-6.40059	-283.316	-39.2764	-38.5887	-265.773	-55.6854	20.1756	-283.448	-65.6986	-6.55271	-269.892	-77.7772	-41.7475	-246.651	-75.7761	10.2989	-239.331	-86.8654	-17.5072	-209.268	-87.1367	-27.0623	-225.714	-87.9796	17.3209	-208.816	-92.5774	-6.59198	-183.403	-80.031	-8.58726	-224.198	-54.9155	60.7463	-203.596	-50.2507	80.2729	-215.67	-22.8843	60.2428	
30	0.25	-205.355	-14.5881	43.2479	-214.485	-8.45801	11.9182	-223.485	-8.65932	-11.934	-235.517	-18.9421	-35.0741	-277.56	-30.599	32.2404	-299.821	-36.5866	14.2927	-293.528	-42.3947	-21.5216	-277.222	-59.7575	33.9174	-297.11	-68.3041	5.34241	-275.083	-70.9047	-24.1473	-260.342	-78.948	16.208	-247.284	-84.3575	-12.3582	-219.094	-69.0525	-15.5464	-235.863	-90.2133	17.5199	-219.816	-87.2661	-2.58209	-192.077	-68.9537	-0.117682	-234.882	-68.4408	68.4833	-207.232	-61.3266	85.8459	-226.13	-32.7323	71.0873	
31	0.258333	-187.175	3.31184	43.7462	-195.835	12.7766	10.8178	-208.393	13.5518	-12.0007	-222.386	3.84484	-35.7741	-264.055	0.931265	30.0748	-283.121	8.36328	6.9576	-266.687	3.18169	-22.9292	-272.913	-22.5173	24.9536	-282.902	-24.245	-6.10033	-251.075	-26.8483	-29.0467	-251.751	-47.4026	10.617	-241.261	-47.5766	-16.7223	-207.083	-41.2981	-12.6422	-233.545	-63.7784	12.7954	-212.082	-59.6738	-8.51231	-188.573	-50.694	0.642675	-228.644	-44.7534	63.8569	-199.649	-44.8313	80.3124	-212.842	-9.43456	67.2104	
32	0.266667	-145.272	22.9718	35.7636	-144.742	33.1519	4.74901	-152.773	36.8331	-24.9362	-169.958	20.6142	-41.3588	-208.595	46.1066	8.54945	-221.982	54.3545	-22.4211	-201.052	38.4643	-42.7823	-226.618	22.9199	1.17162	-232.241	24.2724	-32.6577	-197.845	9.46416	-46.2106	-215.181	-1.40646	-8.71056	-200.054	-12.0929	-33.0398	-169.769	-18.2818	-18.9374	-205.886	-26.748	-4.68741	-181.479	-27.6515	-18.5286	-157.968	-30.1999	1.46739	-204.454	-8.05489	47.5337	-179.599	-16.9575	69.3616	-178.214	13.7709	55.2604	
33	0.275	-88.8709	23.5182	30.1991	-76.1507	24.5924	-2.13156	-79.3964	19.4651	-35.1137	-94.9372	5.35087	-47.4518	-133.82	53.9089	-25.0113	-133.398	58.2057	-58.3375	-117.266	31.3317	-70.1614	-154.591	43.2253	-33.5818	-153.994	36.4107	-64.5562	-132.317	7.25533	-73.5562	-154.12	12.3326	-34.1669	-141.687	-9.52376	-47.5653	-122.058	-22.8881	-21.5618	-158.64	-11.8008	-24.2541	-136.865	-26.4797	-24.6487	-125.233	-34.2653	1.27281	-157.443	22.1683	24.4425	-149.9	11.6134	51.4788	-129.738	33.8106	35.8661	
34	0.283333	-57.8434	1.53764	32.5234	-35.0667	-13.701	11.8019	-29.6188	-28.0988	-13.5325	-42.2096	-42.6919	-33.3878	-70.8307	18.5366	-39.9051	-62.1075	9.42849	-73.9468	-56.6629	-14.3507	-84.2551	-96.308	14.5324	-52.5638	-94.1225	-1.89539	-80.9843	-84.5188	-37.9934	-88.1941	-111.934	-13.2462	-42.8373	-100.515	-43.6988	-47.5796	-93.9094	-54.0251	-15.3421	-126.098	-26.7049	-24.8606	-108.926	-51.153	-17.1593	-101.836	-45.4798	11.1343	-117.75	17.4267	6.11215	-120.769	16.6402	39.7512	-91.0607	23.361	20.9711	
35	0.291667	-47.2949	-17.1975	46.3466	-26.2312	-39.0594	30.1895	-15.6668	-58.1878	15.439	-16.2371	-78.7691	-0.923743	-46.0037	-20.7329	-32.8931	-30.6816	-37.7862	-57.8238	-26.552	-57.9358	-69.8979	-76.5696	-25.4689	-47.4584	-66.9279	-45.0605	-69.8487	-59.9668	-77.4488	-80.7591	-94.7491	-46.4372	-33.2758	-87.4161	-78.521	-30.064	-82.8599	-85.5962	-0.203183	-109.827	-57.4471	-17.1397	-97.774	-75.9899	1.36079	-95.5053	-64.5424	26.4093	-104.48	-3.12443	2.59891	-110.969	5.99372	34.3107	-76.3542	3.20635	24.486	
36	0.3	-48.0066	-27.0515	60.2813	-27.8442	-51.667	51.7385	-13.4507	-72.87	43.64	-2.05997	-96.0587	34.2379	-41.5493	-49.3249	-16.7167	-26.828	-65.8075	-32.5828	-17.4938	-90.0459	-43.2376	-65.5628	-53.2936	-28.8131	-53.9612	-75.2495	-46.3388	-50.3253	-109.751	-52.2494	-87.1436	-69.9498	-14.7739	-80.6637	-99.4754	-9.37512	-76.6123	-104.621	27.4195	-101.903	-78.8669	1.26757	-91.9796	-92.7731	20.8335	-91.2901	-74.9166	46.287	-103.673	-22.8882	12.936	-109.741	-8.29189	37.4185	-75.3209	-11.6095	32.1412	
